<?xml version="1.0" encoding="UTF-8" standalone="no"?> <svg width="64" height="64" viewBox="0 0 64 64" fill="none" xmlns="http://www.w3.org/2000/svg">
<path d="M47.738 28.833L45.766 29.167C45.848 29.653 45.909 30.149 45.947 30.642C46.1623 33.2545 45.7674 35.8814 44.7932 38.315C43.8191 40.7487 42.2925 42.9226 40.334 44.665C40.229 44.7587 40.1451 44.8735 40.0875 45.0019C40.0299 45.1302 40.0001 45.2693 40 45.41V60H20V53C20 52.7348 19.8946 52.4804 19.7071 52.2929C19.5196 52.1054 19.2652 52 19 52H13C12.2043 52 11.4413 51.6839 10.8787 51.1213C10.3161 50.5587 9.99999 49.7957 9.99999 49V42C9.99999 41.7348 9.89464 41.4804 9.7071 41.2929C9.51956 41.1054 9.26521 41 8.99999 41H5.08099L11.781 32.625C11.9229 32.4476 12.0001 32.2272 12 32C11.9941 28.6555 12.98 25.3843 14.833 22.6L13.167 21.492C11.1614 24.5039 10.0622 28.028 9.99999 31.646L3.51599 39.746C3.27909 40.0403 3.13041 40.3958 3.08716 40.7711C3.04392 41.1464 3.10788 41.5264 3.27164 41.8669C3.4354 42.2074 3.69226 42.4945 4.01248 42.695C4.33269 42.8956 4.70317 43.0013 5.08099 43H7.99999V49C8.00158 50.3256 8.52887 51.5964 9.46621 52.5338C10.4036 53.4711 11.6744 53.9984 13 54H18V61C18 61.2652 18.1053 61.5196 18.2929 61.7071C18.4804 61.8946 18.7348 62 19 62H41C41.2652 62 41.5196 61.8946 41.7071 61.7071C41.8946 61.5196 42 61.2652 42 61V45.851C44.0864 43.9051 45.7048 41.5118 46.7337 38.8508C47.7627 36.1898 48.1754 33.3303 47.941 30.487C47.9 29.935 47.83 29.379 47.738 28.833Z" fill="black"/>
<path d="M58 6H38C37.2044 6 36.4413 6.31607 35.8787 6.87868C35.3161 7.44129 35 8.20435 35 9V21C35 21.7956 35.3161 22.5587 35.8787 23.1213C36.4413 23.6839 37.2044 24 38 24H41V29C41 29.1978 41.0585 29.3911 41.1684 29.5556C41.2782 29.72 41.4343 29.8483 41.617 29.924C41.7383 29.9746 41.8685 30.0004 42 30C42.2652 29.9999 42.5195 29.8946 42.707 29.707L48.414 24H58C58.7956 24 59.5587 23.6839 60.1213 23.1213C60.6839 22.5587 61 21.7956 61 21V9C61 8.20435 60.6839 7.44129 60.1213 6.87868C59.5587 6.31607 58.7956 6 58 6ZM59 21C59 21.2652 58.8946 21.5196 58.7071 21.7071C58.5196 21.8946 58.2652 22 58 22H48C47.7348 22.0001 47.4805 22.1054 47.293 22.293L43 26.586V23C43 22.7348 42.8946 22.4804 42.7071 22.2929C42.5196 22.1054 42.2652 22 42 22H38C37.7348 22 37.4804 21.8946 37.2929 21.7071C37.1054 21.5196 37 21.2652 37 21V9C37 8.73478 37.1054 8.48043 37.2929 8.29289C37.4804 8.10536 37.7348 8 38 8H58C58.2652 8 58.5196 8.10536 58.7071 8.29289C58.8946 8.48043 59 8.73478 59 9V21Z" fill="black"/>
<path d="M43 10H41V12H43V10Z" fill="black"/>
<path d="M55 10H45V12H55V10Z" fill="black"/>
<path d="M55 14H41V16H55V14Z" fill="black"/>
<path d="M55 18H41V20H55V18Z" fill="black"/>
<path d="M10 20H19.586L25.293 25.707C25.4805 25.8946 25.7348 25.9999 26 26C26.1315 26.0004 26.2617 25.9746 26.383 25.924C26.5657 25.8483 26.7218 25.72 26.8316 25.5556C26.9415 25.3911 27 25.1978 27 25V20H30C30.7956 20 31.5587 19.6839 32.1213 19.1213C32.6839 18.5587 33 17.7956 33 17V5C33 4.20435 32.6839 3.44129 32.1213 2.87868C31.5587 2.31607 30.7956 2 30 2H10C9.20435 2 8.44129 2.31607 7.87868 2.87868C7.31607 3.44129 7 4.20435 7 5V17C7 17.7956 7.31607 18.5587 7.87868 19.1213C8.44129 19.6839 9.20435 20 10 20ZM9 5C9 4.73478 9.10536 4.48043 9.29289 4.29289C9.48043 4.10536 9.73478 4 10 4H30C30.2652 4 30.5196 4.10536 30.7071 4.29289C30.8946 4.48043 31 4.73478 31 5V17C31 17.2652 30.8946 17.5196 30.7071 17.7071C30.5196 17.8946 30.2652 18 30 18H26C25.7348 18 25.4804 18.1054 25.2929 18.2929C25.1054 18.4804 25 18.7348 25 19V22.586L20.707 18.293C20.5195 18.1054 20.2652 18.0001 20 18H10C9.73478 18 9.48043 17.8946 9.29289 17.7071C9.10536 17.5196 9 17.2652 9 17V5Z" fill="black"/>
<path d="M15 6H13V8H15V6Z" fill="black"/>
<path d="M27 6H17V8H27V6Z" fill="black"/>
<path d="M27 10H13V12H27V10Z" fill="black"/>
<path d="M27 14H13V16H27V14Z" fill="black"/>
</svg>
