<svg viewBox="0 0 48 48" xmlns="http://www.w3.org/2000/svg" xmlns:xlink="http://www.w3.org/1999/xlink" >
<defs>



 <path fill="#000000" id="i-426" d="M19,11c2.748,0,4.984-2.244,4.984-5c0-2.758-2.237-5-4.984-5c-2.748,0-4.984,2.242-4.984,5C14.016,8.756,16.252,11,19,11z M19,3c1.646,0,2.984,1.346,2.984,3S20.646,9,19,9s-2.984-1.346-2.984-3S17.354,3,19,3z M41.84,38.014 c-0.536,0.086-1.526,0.428-2.278,0.703l-3.642-9.041C35.459,28.072,34.273,27,32.954,27H22.008l0.001-2H30 c1.653,0,2.998-1.346,2.998-3S31.653,19,30,19h-7.99v-3c0-1.654-1.351-3-3.013-3c-0.799,0-1.551,0.313-2.118,0.879 C16.312,14.445,16,15.199,16,16l0.002,3.049C8.749,19.559,3,25.613,3,33c0,7.719,6.275,14,13.988,14 c7.277,0,13.269-5.592,13.924-12.707l4.157,9.229c0.488,1.088,1.157,2.576,2.544,2.576c0.282,0,0.563-0.068,0.834-0.203l4.23-2.115 C43.658,43.299,45,42.639,45,41C45,39.221,43.518,37.738,41.84,38.014z M16.988,45C10.378,45,5,39.617,5,33 c0-6.285,4.854-11.447,11.004-11.951L16.01,30c0,1.541,1.443,3,2.969,3h9.998C28.978,39.617,23.599,45,16.988,45z M41.796,41.984 l-4.154,2.076c-0.249-0.246-0.593-1.012-0.749-1.357L31.622,31H18.979c-0.382,0-0.969-0.537-0.969-1.002l-0.01-14 c0-0.266,0.104-0.516,0.293-0.705C18.482,15.104,18.733,15,18.998,15c0.549,0,1.013,0.457,1.013,1v5H30c0.551,0,0.998,0.449,0.998,1 S30.551,23,30,23h-9.988l-0.005,6h12.948c0.39,0,0.862,0.566,1.053,1.264l4.437,11.029l0.923-0.363 c0.819-0.322,2.304-0.863,2.87-0.949C42.615,39.98,43,40.494,43,41C43,41.34,42.714,41.533,41.796,41.984z"/> 
</defs>

<use x="0" y="0" xlink:href="#i-426"/>

</svg>