<?xml version="1.0" standalone="no"?>
<!DOCTYPE svg PUBLIC "-//W3C//DTD SVG 20010904//EN"
 "http://www.w3.org/TR/2001/REC-SVG-20010904/DTD/svg10.dtd">
<svg version="1.0" xmlns="http://www.w3.org/2000/svg"
 width="731.000000pt" height="666.000000pt" viewBox="0 0 731.000000 666.000000"
 preserveAspectRatio="xMidYMid meet">

<g transform="translate(0.000000,666.000000) scale(0.100000,-0.100000)"
fill="#000000" stroke="none">
<path d="M3317 6503 c-34 -34 86 -226 223 -356 94 -90 155 -127 214 -129 33
-1 44 6 102 63 104 102 224 293 224 354 0 29 -29 62 -64 71 -37 9 -82 -20
-186 -121 -113 -109 -142 -121 -195 -81 -18 14 -51 47 -72 72 -20 26 -62 66
-91 90 -47 38 -60 44 -101 44 -26 0 -51 -3 -54 -7z"/>
<path d="M3627 5906 c-48 -18 -83 -49 -108 -98 -23 -46 -24 -85 -3 -139 16
-38 16 -43 1 -75 -9 -19 -28 -40 -42 -46 l-25 -11 0 -152 0 -152 -72 -6 c-103
-8 -179 -30 -283 -82 -157 -77 -274 -194 -350 -350 -39 -80 -75 -217 -75 -287
l0 -48 -147 -1 c-165 0 -241 -9 -254 -30 -5 -8 -9 -63 -9 -122 0 -186 -21
-206 -230 -218 -151 -9 -265 -34 -343 -76 -79 -43 -173 -138 -247 -248 -100
-151 -161 -188 -383 -236 -213 -45 -252 -81 -334 -308 -54 -153 -123 -236
-216 -262 l-36 -10 -3 -497 c-3 -459 -4 -500 -22 -540 -22 -52 -64 -88 -118
-103 -60 -16 -113 -53 -131 -92 -15 -31 -17 -95 -17 -605 0 -314 3 -578 6
-587 18 -45 15 -45 856 -45 867 0 802 4 1023 -64 883 -273 1779 -322 2650
-146 230 47 514 121 660 173 l90 32 833 5 834 5 19 24 c18 22 19 47 19 605 0
552 -1 583 -19 612 -23 37 -70 68 -131 84 -54 14 -101 61 -118 117 -9 29 -12
178 -12 530 l0 490 -45 13 c-54 15 -126 75 -160 134 -13 23 -40 85 -60 139
-44 124 -60 154 -99 195 -46 50 -94 70 -240 103 -219 50 -273 83 -370 227 -73
110 -111 154 -176 204 -102 80 -217 115 -420 127 -74 5 -147 14 -162 21 -16 8
-37 31 -48 56 -18 36 -21 58 -18 148 2 88 -1 109 -15 123 -13 14 -47 17 -201
21 l-185 5 -6 56 c-21 190 -95 350 -219 476 -47 48 -110 99 -151 123 -91 53
-234 100 -329 109 l-76 6 0 144 0 144 -40 38 c-45 43 -51 73 -24 137 47 111
-101 252 -219 210z m245 -2573 c82 -39 151 -105 186 -181 l27 -57 3 -504 3
-504 -22 -23 -22 -24 -354 0 c-330 0 -354 1 -372 19 -17 17 -19 50 -25 498 -8
504 -7 522 36 608 35 69 66 103 131 141 93 55 128 64 242 61 88 -2 108 -6 167
-34z m-2054 -673 c59 -26 119 -83 143 -135 17 -37 19 -70 19 -402 0 -316 -2
-364 -16 -377 -13 -14 -52 -16 -271 -16 -225 0 -259 2 -275 17 -17 15 -18 40
-18 375 0 400 0 401 68 471 90 94 229 120 350 67z m3980 0 c63 -27 133 -101
150 -158 8 -27 12 -147 12 -387 0 -310 -2 -350 -17 -367 -15 -17 -37 -18 -273
-18 -234 0 -258 2 -273 18 -14 15 -16 62 -18 380 -1 355 -1 363 21 404 27 53
54 83 99 111 83 51 204 58 299 17z m-1951 -881 c71 -44 68 -8 68 -756 0 -666
0 -672 -21 -700 -47 -63 -75 -73 -209 -73 -134 0 -162 10 -209 73 -21 28 -21
34 -21 695 0 737 -2 713 64 758 33 22 44 24 165 24 113 0 133 -3 163 -21z
m-648 -88 c11 -11 23 -35 26 -53 3 -18 5 -315 3 -660 l-3 -627 -23 -23 c-19
-20 -32 -23 -87 -21 -75 1 -142 30 -186 81 l-29 33 0 585 c0 377 4 592 10 604
12 23 83 73 125 88 17 6 56 11 88 11 44 1 61 -3 76 -18z m1174 -14 c25 -15 55
-39 66 -53 21 -26 21 -35 21 -621 l0 -595 -30 -28 c-50 -47 -113 -72 -185 -73
-74 -2 -92 9 -105 69 -12 51 -12 1217 0 1269 13 57 32 68 116 62 54 -3 83 -10
117 -30z m-2560 -133 c59 -20 129 -82 156 -137 20 -40 21 -60 21 -300 0 -243
-1 -257 -19 -267 -12 -6 -118 -10 -275 -10 -252 0 -255 0 -270 22 -13 19 -16
61 -16 263 0 231 1 242 24 290 44 95 145 155 262 155 39 0 91 -7 117 -16z
m3960 0 c59 -20 129 -82 156 -137 20 -40 21 -60 21 -300 0 -243 -1 -257 -19
-267 -12 -6 -118 -10 -275 -10 -252 0 -255 0 -270 22 -13 19 -16 61 -16 263 0
220 2 244 21 285 28 63 64 98 134 131 49 24 73 29 131 29 39 0 91 -7 117 -16z
m-3122 -33 l24 -19 3 -484 c2 -265 0 -497 -3 -515 -8 -47 -29 -63 -80 -63 -85
0 -202 56 -231 111 -11 23 -14 103 -14 448 l0 419 25 30 c29 34 79 61 150 78
72 18 100 17 126 -5z m2228 -8 c33 -10 69 -31 93 -53 l38 -37 0 -422 c0 -347
-3 -427 -14 -450 -29 -55 -146 -111 -231 -111 -51 0 -72 16 -80 63 -3 18 -5
250 -3 515 l3 484 25 20 c28 23 75 20 169 -9z"/>
</g>
</svg>
