<?xml version="1.0" encoding="UTF-8" standalone="no"?> <svg width="512" height="512" viewBox="0 0 512 512" fill="none" xmlns="http://www.w3.org/2000/svg">
<path d="M373.333 213.333C368.488 213.336 363.786 211.686 360.005 208.656C357.5 206.656 298.666 158.864 298.666 96C298.666 86.1946 300.597 76.4852 304.35 67.4262C308.102 58.3672 313.602 50.1359 320.535 43.2025C327.469 36.269 335.7 30.7691 344.759 27.0167C353.818 23.2643 363.528 21.333 373.333 21.333C383.138 21.333 392.848 23.2643 401.907 27.0167C410.966 30.7691 419.197 36.269 426.131 43.2025C433.064 50.1359 438.564 58.3672 442.316 67.4262C446.069 76.4852 448 86.1946 448 96C448 158.865 389.167 206.656 386.661 208.656C382.88 211.686 378.179 213.336 373.333 213.333V213.333ZM373.333 64C364.849 64.0093 356.715 67.3837 350.716 73.3828C344.717 79.382 341.342 87.5159 341.333 96C341.333 123.177 359.953 148.109 373.333 162.521C386.708 148.121 405.333 123.182 405.333 96C405.324 87.5159 401.949 79.382 395.95 73.3828C389.951 67.3837 381.817 64.0093 373.333 64V64Z" fill="black"/>
<path d="M138.667 490.667C133.822 490.67 129.12 489.021 125.339 485.99C122.833 483.99 64 436.2 64 373.333C64.0723 353.578 71.9708 334.656 85.9657 320.712C99.9605 306.769 118.911 298.939 138.667 298.939C158.422 298.939 177.372 306.769 191.367 320.712C205.362 334.656 213.261 353.578 213.333 373.333C213.333 436.198 154.5 483.989 151.994 485.989C148.213 489.02 143.512 490.67 138.667 490.667V490.667ZM138.667 341.334C130.183 341.343 122.049 344.718 116.05 350.717C110.051 356.716 106.676 364.85 106.667 373.334C106.667 400.511 125.287 425.443 138.667 439.855C152.042 425.455 170.667 400.516 170.667 373.334C170.658 364.85 167.284 356.716 161.285 350.716C155.285 344.717 147.151 341.342 138.667 341.333V341.334Z" fill="black"/>
<path d="M352 426.667H256C250.342 426.667 244.916 424.419 240.915 420.419C236.914 416.418 234.667 410.991 234.667 405.333C234.667 399.675 236.914 394.249 240.915 390.248C244.916 386.248 250.342 384 256 384H352C366.145 384 379.711 378.381 389.712 368.379C399.714 358.377 405.333 344.811 405.333 330.667C405.333 316.522 399.714 302.956 389.712 292.954C379.711 282.952 366.145 277.333 352 277.333H160C134.539 277.333 110.121 267.219 92.1178 249.215C74.1143 231.212 64 206.794 64 181.333C64 155.872 74.1143 131.454 92.1178 113.451C110.121 95.4473 134.539 85.333 160 85.333H245.333C250.991 85.333 256.417 87.5806 260.418 91.5814C264.419 95.5823 266.667 101.009 266.667 106.667C266.667 112.325 264.419 117.751 260.418 121.752C256.417 125.752 250.991 128 245.333 128H160C145.855 128 132.289 133.619 122.288 143.621C112.286 153.623 106.666 167.189 106.666 181.334C106.666 195.478 112.286 209.044 122.288 219.046C132.289 229.048 145.855 234.667 160 234.667H352C377.461 234.667 401.879 244.781 419.882 262.785C437.886 280.788 448 305.206 448 330.667C448 356.128 437.886 380.546 419.882 398.549C401.879 416.553 377.461 426.667 352 426.667Z" fill="black"/>
</svg>
